<svg xmlns="http://www.w3.org/2000/svg" viewBox="0 0 288 290.88"><defs><style>.cls-1{fill:#feee00;}</style></defs><g id="Layer_2" data-name="Layer 2"><g id="Layer_2-2" data-name="Layer 2"><path class="cls-1" d="M110.63,16.52l7.73-1.18c-.42-2.49-.75-4.92-1-7.23l-3.9.36h0l-3.89.36C109.84,11.29,110.19,13.88,110.63,16.52Z"/><path class="cls-1" d="M115.76,22.51h0l-3.83.74c1.2,5.63,2.67,11.26,4.1,16.7l.14.53,3.79-.9h0l3.8-.91-.14-.53c-1.4-5.36-2.86-10.91-4-16.38l-3.83.75Z"/><path class="cls-1" d="M120.86,60.9l7.72-1.22c-.71-4.14-1.67-8.54-3-13.86L118,47.54C119.26,52.69,120.17,56.93,120.86,60.9Z"/><polygon class="cls-1" points="136.99 10.29 136.2 0 128.39 0.55 129.18 10.84 136.99 10.29"/><path class="cls-1" d="M133.63,17.73h0l-3.89.37c.46,4.37.9,8.9,1.33,13.86l7.8-.62c-.44-5-.88-9.58-1.34-14l-3.9.38Z"/><path class="cls-1" d="M135.59,39.14h0l-3.91.28c.41,5.14.81,10.62,1.26,17.23l7.81-.49c-.45-6.64-.85-12.13-1.26-17.3l-3.9.28Z"/><path class="cls-1" d="M152.44,16.5h0l3.9.3c.46-5.55.78-9.84,1-13.92l-3.9-.21h0l-3.91-.21c-.23,4-.54,8.26-1,13.75l3.9.29Z"/><path class="cls-1" d="M154.86,34.07q.39-4.74.81-9.48l-7.8-.62c-.28,3.17-.55,6.35-.81,9.52Z"/><path class="cls-1" d="M149.67,59h0l3.91,0c0-5.38.29-11.28.76-18l-3.91-.24h0l-3.9-.25c-.48,6.91-.73,13-.78,18.47l3.92,0Z"/><polygon class="cls-1" points="177.02 9.76 169.4 8.07 166.44 20.23 174.06 21.92 177.02 9.76"/><path class="cls-1" d="M172.61,27.87l-3.84-.69h0l-3.85-.7c-1.43,7.18-3.42,14.47-5.17,20.74l7.56,1.92C169.1,42.75,171.13,35.31,172.61,27.87Z"/><path class="cls-1" d="M188.45,35.4c2-5.38,4-10.94,6.05-16.37l-3.68-1.27h0l-3.68-1.28C185.05,22,183,27.55,181.05,33l-1.3,3.58L187.14,39Z"/><path class="cls-1" d="M178.5,61.73c1.84-4.53,3.76-9.5,6-15.64l-3.69-1.24h0l-3.69-1.24c-2.24,6.06-4.13,11-6,15.42Z"/><polygon class="cls-1" points="211.73 28.81 216.82 19.74 209.92 16.22 204.83 25.3 211.73 28.81"/><polygon class="cls-1" points="200.29 49.23 207.92 35.62 201.01 32.1 193.39 45.71 200.29 49.23"/><polygon class="cls-1" points="196.64 55.73 189.74 52.22 185.44 59.88 192.34 63.4 196.64 55.73"/><polygon class="cls-1" points="220.79 48.61 226.19 41.82 219.96 37.31 214.55 44.11 220.79 48.61"/><polygon class="cls-1" points="201.59 60.41 207.83 64.92 215.39 55.41 209.15 50.9 201.59 60.41"/><polygon class="cls-1" points="230.27 64.06 248.42 46.51 242.85 41.27 224.7 58.82 230.27 64.06"/><polygon class="cls-1" points="247.54 71.72 258.32 64.14 253.67 58.13 242.89 65.72 247.54 71.72"/><path class="cls-1" d="M95.88,20.77h0l3.68-1.28C98.1,15.66,96.83,12.23,95.67,9l-7.41,2.42c1.18,3.27,2.47,6.75,3.94,10.62Z"/><path class="cls-1" d="M98.69,28h0L95,29.34l2.47,6.33c2.09,5.33,4.24,10.83,6.28,16.26l7.37-2.53c-2.06-5.47-4.22-11-6.32-16.33l-2.46-6.32L98.69,28Z"/><path class="cls-1" d="M108.91,66.21l7.45-2.3c-.88-2.58-1.84-5.31-2.85-8.1L109.81,57h0l-3.7,1.22C107.11,61,108.05,63.67,108.91,66.21Z"/><polygon class="cls-1" points="72.67 46.28 59.07 28.11 52.7 32.44 66.3 50.62 72.67 46.28"/><polygon class="cls-1" points="76.52 64.29 82.9 59.95 77.14 52.26 70.77 56.59 76.52 64.29"/><polygon class="cls-1" points="91.48 43.89 89.07 39.14 82.02 42.39 84.44 47.14 91.48 43.89"/><polygon class="cls-1" points="91.48 61.01 98.53 57.76 94.56 49.96 87.52 53.22 91.48 61.01"/><polygon class="cls-1" points="23.62 50.58 18.82 47.28 14.24 53.33 19.04 56.63 23.62 50.58"/><polygon class="cls-1" points="41.31 39.72 38.07 36.84 32.73 42.3 35.97 45.18 41.31 39.72"/><polygon class="cls-1" points="57.52 54.13 47.8 45.48 42.46 50.94 52.19 59.59 57.52 54.13"/><polygon class="cls-1" points="138.85 279.58 139.1 289.98 146.92 289.81 146.68 279.41 138.85 279.58"/><polygon class="cls-1" points="119.75 279.44 117.93 289.25 125.64 290.55 127.45 280.73 119.75 279.44"/><polygon class="cls-1" points="122.77 263.09 121.03 272.49 128.74 273.79 130.47 264.38 122.77 263.09"/><polygon class="cls-1" points="101.14 283.43 108.66 285.48 113.47 269.49 105.94 267.43 101.14 283.43"/><polygon class="cls-1" points="112.78 244.7 108.22 259.85 115.75 261.91 120.3 246.75 112.78 244.7"/><polygon class="cls-1" points="84.52 265.27 91.54 268.57 98.24 255.64 91.22 252.34 84.52 265.27"/><polygon class="cls-1" points="94.81 245.41 101.83 248.71 107.87 237.04 100.85 233.74 94.81 245.41"/><polygon class="cls-1" points="71.49 252.72 63 264.85 69.51 268.99 78 256.87 71.49 252.72"/><path class="cls-1" d="M94.84,231.87l-3.23-2.11h0l-3.22-2.11C83.08,235,79,241.16,75.52,247l3.4,1.85h0l3.4,1.84C85.68,245,89.66,239.06,94.84,231.87Z"/><polygon class="cls-1" points="72.75 234.2 83.51 221.57 77.44 216.87 66.68 229.5 72.75 234.2"/><path class="cls-1" d="M42.73,231.81c-3.9,3.69-7.1,6.7-10.07,9.46l5.47,5.34c3-2.78,6.2-5.8,10.11-9.5Z"/><path class="cls-1" d="M66.23,214.84h0l-2.74-2.67c-4.84,4.54-9.73,9.17-14.45,13.66l-.66.63,5.52,5.28.66-.62C59.27,226.64,64.15,222,69,217.5Z"/><path class="cls-1" d="M82.76,199.74,80.09,197c-3.45,3.06-7,6.29-10.9,9.87l2.72,2.68h0l2.72,2.68c3.85-3.54,7.38-6.74,10.79-9.77l-2.66-2.73Z"/><polygon class="cls-1" points="30.36 215.69 19.13 222.97 23.53 229.14 34.76 221.86 30.36 215.69"/><path class="cls-1" d="M36.3,211.84l4.55,6.06q4.84-3.3,9.72-6.58l-4.51-6.1Q41.16,208.52,36.3,211.84Z"/><path class="cls-1" d="M74.35,191.18l-2.18-3.1c-6.57,4.2-13.45,8.69-20.43,13.34l4.48,6.12c6.94-4.62,13.77-9.09,20.31-13.26l-2.18-3.1Z"/><path class="cls-1" d="M38.15,201l-3.55-6.65c-9.14,4.42-16.16,7.68-22.78,10.55l1.63,3.39h0l1.62,3.4C21.79,208.74,28.9,205.44,38.15,201Z"/><path class="cls-1" d="M53.38,185.14l-8,3.9-4.56,2.23,3.57,6.64L49,195.68l7.95-3.89Z"/><path class="cls-1" d="M67.89,178.22c-2.62,1.21-5.35,2.51-8.37,4L63,188.84c3-1.43,5.69-2.72,8.28-3.92Z"/><polygon class="cls-1" points="16.05 182.47 4.21 186.29 6.72 193.35 18.55 189.53 16.05 182.47"/><path class="cls-1" d="M23.7,183.93l1,3.62c5.53-1.36,11.41-3.13,18.5-5.57l-2.65-7c-6.85,2.35-12.51,4.05-17.8,5.35l1,3.61Z"/><path class="cls-1" d="M53.15,170.45l-5.63,2.05,2.77,7L56,177.42c5.43-2,11-4,16.6-5.86L70,164.51C64.32,166.38,58.64,168.45,53.15,170.45Z"/><path class="cls-1" d="M15.79,165.4C10.05,166.28,4.88,167,0,167.68l1.1,7.39c4.93-.67,10.13-1.42,15.92-2.3Z"/><path class="cls-1" d="M38.55,161.81c-5.25.84-10.5,1.69-15.75,2.51l1.27,7.36c5.26-.82,10.52-1.67,15.78-2.51l1.81-.29-1.3-7.36Z"/><path class="cls-1" d="M48.08,160.28l1.29,7.36c5.65-.9,10.24-1.62,14.45-2.26L62.58,158C58.36,158.66,53.75,159.38,48.08,160.28Z"/><polygon class="cls-1" points="11.18 155.15 29.27 154.34 28.91 146.88 10.81 147.7 11.18 155.15"/><path class="cls-1" d="M51.54,150.06l-.27-3.72a124.66,124.66,0,0,1-14.84.22L36,154c1.73.09,3.53.14,5.43.14,3.11,0,6.51-.12,10.37-.37l-.26-3.72Z"/><path class="cls-1" d="M15.88,129c-5.79-.38-10.51-.77-14.89-1.25l-.88,7.42c4.49.48,9.33.89,15.23,1.28Z"/><path class="cls-1" d="M25.75,129.6l-2.81-.16-.47,7.45,2.81.16c4.59.26,9.34.53,14,.87l.29-3.72h0l.3-3.72C35.15,130.14,30.37,129.86,25.75,129.6Z"/><path class="cls-1" d="M47.72,131.13l-.4,3.72h0l-.39,3.71c2,.19,4,.41,5.9.64l.49-3.7h0l.5-3.7C51.86,131.56,49.81,131.34,47.72,131.13Z"/><polygon class="cls-1" points="11.5 110.28 3.95 108.5 2.07 115.74 9.62 117.52 11.5 110.28"/><polygon class="cls-1" points="16.69 119.19 28.52 121.98 30.41 114.74 18.57 111.95 16.69 119.19"/><polygon class="cls-1" points="36.21 123.79 49.05 126.82 50.93 119.58 38.09 116.55 36.21 123.79"/><polygon class="cls-1" points="23.17 95.13 12.42 91.11 9.56 98.06 20.31 102.08 23.17 95.13"/><polygon class="cls-1" points="27.75 104.86 40.98 109.81 43.84 102.86 30.61 97.91 27.75 104.86"/><polygon class="cls-1" points="17.15 79.93 24.79 83.65 28.35 77 20.71 73.29 17.15 79.93"/><polygon class="cls-1" points="278.85 98.08 276.12 91.09 270.26 93.17 273 100.16 278.85 98.08"/><polygon class="cls-1" points="255.21 98.52 257.95 105.51 265.47 102.83 262.74 95.84 255.21 98.52"/><polygon class="cls-1" points="252.32 124.77 284.13 115.69 281.89 108.55 250.08 117.62 252.32 124.77"/><polygon class="cls-1" points="157.98 279.19 159.65 290.42 167.4 289.37 165.73 278.14 157.98 279.19"/><polygon class="cls-1" points="164.57 270.36 163.15 260.85 155.4 261.9 156.82 271.41 164.57 270.36"/><path class="cls-1" d="M162.1,253.8l-1.86-12.51,2.52-4.49,3,10.53,7.55-2-5.2-18.15,4.17-7.44,1.57,3.53,7.2-2.91-4-9.07,1-1.79,1.73,2.65,6.64-3.95-4.11-6.3,1.55-2.77,17.29,20.65,6.12-4.66L187.88,192l1-1.83,8,7.68,5.54-5.27-9.7-9.29.29-.52c4.47,3,9,6,13.38,8.88l1.15.75,2.22-3.07h0l2.23-3.07-1.15-.75c-4.64-3.06-9.42-6.21-14.11-9.37l.26-.47,7.05,3.42,3.55-6.65-6.9-3.36.07-.13c7.58,2.58,15.32,4.93,22.62,7.12l2.35-7.12c-5.75-1.72-11.75-3.53-17.72-5.48l21.14,3.39,1.3-7.36-22.38-3.59,1.31-2.33a131,131,0,0,1,18.68-.07l.43-7.45c-4.7-.24-9.67-.42-14.76-.23l3-5.37,19.85-.79-.32-7.45-11.72.46,20.88-6-2.25-7.14-17.54,5,5.34-9.51,20.21-7.18-2.74-7-11.9,4.23,7.32-13,26.13-12.7-3.55-6.65-16.12,7.84,2.93-5.23H240.4l-3.94-5.09-7.22,5.09H218.62l6-5.84-5.58-5.23L207.63,75.34h-8.08l3.34-4.21-6.24-4.51-6.92,8.72h-4.08l2.4-4.28-6.9-3.52-4.38,7.8H173.4L176,68.42l-7.37-2.51-3.53,9.43h-4.34c1.2-6.53,2.89-13,4.58-19.13l-3.78-1h0l-3.78-.95c-1.85,6.67-3.71,13.79-5,21h-.31l.61-9.15-7.81-.48-.64,9.63H142l-.75-11.4-7.81.47.72,10.93H132l-1.94-8.93-7.67,1.51L124,75.34h-3.33l-1.74-4.62-7.36,2.52.79,2.1h-4.89l-5.37-10.57L95,68l3.72,7.32H94.41l-7.33-9.79-6.37,4.33,4.08,5.46H81.38L62.49,58.54,57.15,64,69.91,75.34H59.59l-5.82-4-3,4H47.42l4.17-5.51L39.22,61.32l-4.58,6.05,11.58,8H32.71l2.92,5.21-1-.5L31.05,86.7,42.1,92.08l8.4,15-2.25,5.45L55,115l3.55,6.33-.74-.18-1.88,7.25,7.59,1.79,1.35,2.4L61,132.34l-.62,7.44,8.88.67,2.47,4.42c-4.11.2-8.2.53-12.2.85l-.57.05.33,3.72h0l.33,3.71.58,0c5.13-.42,10.42-.84,15.63-1l2,3.49-7.93,1.22,1.25,7.37,5.8-.9.86,2.65h0l1.17,3.56c2-.59,3.89-1.12,5.75-1.6l1,1.8L74.1,175.26l3.49,6.68,11.77-5.59.4.72c-3.86,2.36-7.78,4.8-11.7,7.27l2.16,3.11h0l2.16,3.11c3.71-2.34,7.42-4.65,11.08-6.89l.32.56-8.39,7.83,5.47,5.34,6.76-6.32.7,1.26L82.49,210.93l6.08,4.7,13.76-16.15,2.86,5.1c-3.19,4.55-6.52,9.07-9.77,13.47l-2.27,3.07,3.2,2.14h0l3.21,2.15,2.25-3.06c2.5-3.38,5-6.83,7.55-10.33l1.43,2.54-6.31,12.18,7,3.3,3.82-7.39,2.66,4.73-3,10.12,7.52,2.05.82-2.72,3.26,5.82L124,256.25l7.71,1.29.78-4.23,6,10.67h0l.21,8.67,7.82-.17-.15-6.44L154,252.43l.36,2.42Zm-27.45-12.52L45.77,82.8H240.25L143,256.19l-8.29-14.78,0-.11Z"/><polygon class="cls-1" points="171.99 269.02 178.25 290.88 185.79 288.91 179.54 267.06 171.99 269.02"/><polygon class="cls-1" points="175.2 251.93 167.65 253.89 169.82 261.46 177.37 259.49 175.2 251.93"/><path class="cls-1" d="M193,246.91l-.1-.22-3.57,1.53h0l-3.57,1.53.1.21c4.54,9.65,9.24,19.63,13,29.71l3.68-1.26h0l3.68-1.26C202.35,266.8,197.59,256.69,193,246.91Z"/><path class="cls-1" d="M183,243.91l7.16-3c-1.81-3.88-4.16-9-6.33-14.26L180.2,228h0l-3.64,1.37C178.78,234.75,181.18,240,183,243.91Z"/><polygon class="cls-1" points="198.93 241.51 204.96 250.75 211.6 246.81 205.57 237.57 198.93 241.51"/><polygon class="cls-1" points="190.72 214.82 184.07 218.76 195.53 236.31 202.17 232.36 190.72 214.82"/><polygon class="cls-1" points="220.72 243.2 231.75 256.37 237.86 251.72 226.84 238.55 220.72 243.2"/><polygon class="cls-1" points="222.31 233.13 211.76 220.53 205.64 225.18 216.19 237.79 222.31 233.13"/><path class="cls-1" d="M238.59,227.38,233,232.6c5.87,5.72,10.47,10.05,14.92,14.05l5.37-5.42C248.92,237.29,244.38,233,238.59,227.38Z"/><path class="cls-1" d="M226.93,226.65l5.62-5.19-2-2-4-4-5.62,5.19,4,4Z"/><path class="cls-1" d="M215,214.9l5.58-5.23c-4.82-4.67-8.78-8.4-12.48-11.74l-2.69,2.71h0l-2.69,2.71C206.31,206.63,210.21,210.3,215,214.9Z"/><polygon class="cls-1" points="251.36 223.2 259.83 229.07 264.43 223.03 255.96 217.16 251.36 223.2"/><path class="cls-1" d="M235.6,202.14l-4.63,6c6.7,4.71,12.52,9,17.81,13.25l2.51-2.86h0l2.51-2.86C248.39,211.37,242.44,206.94,235.6,202.14Z"/><path class="cls-1" d="M228.69,197.37c-3-2.06-6.23-4.21-10.13-6.8l-2.23,3.07h0l-2.24,3.06c3.87,2.56,7.06,4.7,10,6.74Z"/><path class="cls-1" d="M240.55,189l-1.85,3.28h0l-1.85,3.29a134.72,134.72,0,0,0,15.92,7.08l2.77-7A130.66,130.66,0,0,1,240.55,189Z"/><path class="cls-1" d="M228.54,191.22l1.85,1,3.83-6.51-1.85-1c-6-3.2-12.16-6.51-18.58-9.29l-1.62,3.4h0l-1.61,3.4C216.67,184.86,222.7,188.09,228.54,191.22Z"/><polygon class="cls-1" points="249.32 184.02 279.34 193.37 281.77 186.28 251.75 176.93 249.32 184.02"/><path class="cls-1" d="M231.23,174.5h0l-1.18,3.56c3.43,1,7.95,2.4,12.51,3.85l2.48-7.07c-4.61-1.47-9.17-2.86-12.63-3.9Z"/><polygon class="cls-1" points="262.78 164.68 237.09 160.56 235.8 167.92 261.48 172.03 262.78 164.68"/><polygon class="cls-1" points="288 147.69 259.53 147.15 259.37 154.61 287.84 155.15 288 147.69"/><path class="cls-1" d="M252.44,150.75h0l-.08-3.73c-5.33.1-10.72-.19-16.24-.52l-.49,7.45c4.89.29,9.7.55,14.53.55l2.36,0-.08-3.73Z"/><polygon class="cls-1" points="280.72 137.91 280.39 130.46 266.28 131.02 266.61 138.48 280.72 137.91"/><polygon class="cls-1" points="259.22 131.3 243.35 131.94 243.67 139.39 259.55 138.76 259.22 131.3"/></g></g></svg>