<svg id="ba5bbdf1-ea7e-4527-9dc4-6b83a9019784" data-name="Layer 1" xmlns="http://www.w3.org/2000/svg" width="921.17587" height="727.90229" viewBox="0 0 921.17587 727.90229"><title>urban_design</title><circle cx="209.62933" cy="318.19554" r="55.04156" fill="#ff6584"/><path d="M690.03184,466.56673c0,108.36448-64.421,146.20131-143.88825,146.20131S402.25533,574.93121,402.25533,466.56673,546.14359,220.34552,546.14359,220.34552,690.03184,358.20224,690.03184,466.56673Z" transform="translate(-139.41207 -86.04886)" fill="#ffe045"/><polygon points="401.49 510.143 402.963 419.451 464.292 307.253 403.194 405.225 403.857 364.446 446.124 283.272 404.032 353.655 404.032 353.655 405.224 280.313 450.485 215.688 405.411 268.78 406.155 134.297 401.477 312.328 401.862 304.984 355.844 234.547 401.124 319.082 396.836 400.993 396.708 398.819 343.659 324.694 396.548 406.499 396.011 416.743 395.915 416.897 395.959 417.738 385.081 625.552 399.615 625.552 401.359 518.212 454.118 436.607 401.49 510.143" fill="#3f3d56"/><path d="M828.86406,568.91749c0,108.36448-64.421,146.20131-143.88826,146.20131S541.08755,677.282,541.08755,568.91749,684.9758,322.69628,684.9758,322.69628,828.86406,460.553,828.86406,568.91749Z" transform="translate(-139.41207 -86.04886)" fill="#3f3d56"/><polygon points="540.322 612.493 541.796 521.802 603.124 409.604 542.027 507.575 542.689 466.797 584.957 385.623 542.864 456.005 542.864 456.006 544.056 382.663 589.317 318.039 544.243 371.131 544.988 236.647 540.309 414.679 540.694 407.335 494.676 336.898 539.956 421.433 535.668 503.343 535.54 501.169 482.491 427.045 535.38 508.85 534.844 519.094 534.747 519.248 534.791 520.089 523.913 727.902 538.447 727.902 540.191 620.562 592.95 538.958 540.322 612.493" fill="#f2f2f2"/><path d="M558.29324,568.91749c0,108.36448-64.421,146.20131-143.88826,146.20131S270.51673,677.282,270.51673,568.91749,414.405,322.69628,414.405,322.69628,558.29324,460.553,558.29324,568.91749Z" transform="translate(-139.41207 -86.04886)" fill="#3f3d56"/><polygon points="269.751 612.493 271.225 521.802 332.554 409.604 271.456 507.575 272.118 466.797 314.386 385.623 272.294 456.005 272.294 456.006 273.485 382.663 318.746 318.039 273.672 371.131 274.417 236.647 269.739 414.679 270.123 407.335 224.106 336.898 269.385 421.433 265.097 503.343 264.97 501.169 211.92 427.045 264.809 508.85 264.273 519.094 264.177 519.248 264.221 520.089 253.342 727.902 267.876 727.902 269.62 620.562 322.38 538.958 269.751 612.493" fill="#f2f2f2"/><path d="M549.80682,813.03539a297.461,297.461,0,1,1,210.33569-87.12431A295.51307,295.51307,0,0,1,549.80682,813.03539Zm0-592.64986c-162.76768,0-295.18931,132.42108-295.18931,295.18931S387.03914,810.7647,549.80682,810.7647,844.99613,678.34307,844.99613,515.57484,712.5745,220.38553,549.80682,220.38553Z" transform="translate(-139.41207 -86.04886)" fill="#2f2e41"/><polygon points="653.626 599.234 653.626 725.905 167.207 725.905 167.207 599.234 410.416 472.562 410.923 472.825 653.626 599.234" fill="#f2f2f2"/><polygon points="653.626 599.234 653.626 725.905 410.923 725.905 410.923 472.825 653.626 599.234" opacity="0.1"/><polygon points="389.642 550.085 371.402 556.972 371.402 529.818 389.642 521.823 389.642 550.085" fill="#3f3d56"/><polygon points="187.981 626.088 181.901 628.387 181.901 611.901 187.981 609.213 187.981 626.088" fill="#3f3d56"/><polygon points="209.262 618.994 202.168 621.653 202.168 603.794 209.262 600.68 209.262 618.994" fill="#3f3d56"/><polygon points="232.569 609.874 224.462 612.923 224.462 593.66 232.569 590.092 232.569 609.874" fill="#3f3d56"/><polygon points="260.944 598.727 250.81 602.552 250.81 582.513 260.944 578.067 260.944 598.727" fill="#3f3d56"/><polygon points="295.398 585.553 283.238 590.149 283.238 568.326 295.398 562.992 295.398 585.553" fill="#3f3d56"/><polygon points="336.947 570.352 322.76 575.697 322.76 551.098 336.947 544.879 336.947 570.352" fill="#3f3d56"/><polygon points="187.981 659.529 181.901 661.058 181.901 644.329 187.981 642.406 187.981 659.529" fill="#3f3d56"/><polygon points="209.262 654.463 202.168 656.239 202.168 638.249 209.262 636.013 209.262 654.463" fill="#3f3d56"/><polygon points="232.569 648.382 224.462 650.419 224.462 631.155 232.569 628.598 232.569 648.382" fill="#3f3d56"/><polygon points="260.944 641.289 250.81 643.834 250.81 623.048 260.944 619.859 260.944 641.289" fill="#3f3d56"/><polygon points="295.398 632.168 283.238 635.237 283.238 612.914 295.398 609.089 295.398 632.168" fill="#3f3d56"/><polygon points="336.947 622.035 321.746 625.858 321.746 600.754 336.947 595.971 336.947 622.035" fill="#3f3d56"/><polygon points="389.642 608.861 371.402 613.446 371.402 585.553 389.642 579.831 389.642 608.861" fill="#3f3d56"/><polygon points="389.642 666.623 371.402 668.945 371.402 641.289 389.642 637.839 389.642 666.623" fill="#3f3d56"/><polygon points="187.981 691.957 181.901 692.739 181.901 676.757 187.981 675.598 187.981 691.957" fill="#3f3d56"/><polygon points="209.262 689.931 202.168 690.825 202.168 673.717 209.262 672.386 209.262 689.931" fill="#3f3d56"/><polygon points="232.569 686.89 224.462 687.916 224.462 668.65 232.569 667.105 232.569 686.89" fill="#3f3d56"/><polygon points="260.944 682.837 250.81 684.132 250.81 663.583 260.944 661.65 260.944 682.837" fill="#3f3d56"/><polygon points="295.398 678.783 283.238 680.326 283.238 657.503 295.398 655.187 295.398 678.783" fill="#3f3d56"/><polygon points="336.947 673.717 321.746 675.638 321.746 650.409 336.947 647.524 336.947 673.717" fill="#3f3d56"/><polygon points="633.865 626.088 639.946 628.387 639.946 611.901 633.865 609.213 633.865 626.088" fill="#3f3d56"/><polygon points="612.584 618.994 619.678 621.653 619.678 603.794 612.584 600.68 612.584 618.994" fill="#3f3d56"/><polygon points="589.277 609.874 597.384 612.923 597.384 593.66 589.277 590.092 589.277 609.874" fill="#3f3d56"/><polygon points="560.902 598.727 571.036 602.552 571.036 582.513 560.902 578.067 560.902 598.727" fill="#3f3d56"/><polygon points="526.448 585.553 538.608 590.149 538.608 568.326 526.448 562.992 526.448 585.553" fill="#3f3d56"/><polygon points="484.899 570.352 499.087 575.697 499.087 551.098 484.899 544.879 484.899 570.352" fill="#3f3d56"/><polygon points="633.865 659.529 639.946 661.058 639.946 644.329 633.865 642.406 633.865 659.529" fill="#3f3d56"/><polygon points="612.584 654.463 619.678 656.239 619.678 638.249 612.584 636.013 612.584 654.463" fill="#3f3d56"/><polygon points="589.277 648.382 597.384 650.419 597.384 631.155 589.277 628.598 589.277 648.382" fill="#3f3d56"/><polygon points="560.902 641.289 571.036 643.834 571.036 623.048 560.902 619.859 560.902 641.289" fill="#3f3d56"/><polygon points="526.448 632.168 538.608 635.237 538.608 612.914 526.448 609.089 526.448 632.168" fill="#3f3d56"/><polygon points="484.899 622.035 500.1 625.858 500.1 600.754 484.899 595.971 484.899 622.035" fill="#3f3d56"/><polygon points="432.204 608.861 450.445 613.446 450.445 585.553 432.204 579.831 432.204 608.861" fill="#3f3d56"/><polygon points="432.204 666.623 450.445 668.945 450.445 641.289 432.204 637.839 432.204 666.623" fill="#3f3d56"/><polygon points="633.865 691.957 639.946 692.739 639.946 676.757 633.865 675.598 633.865 691.957" fill="#3f3d56"/><polygon points="612.584 689.931 619.678 690.825 619.678 673.717 612.584 672.386 612.584 689.931" fill="#3f3d56"/><polygon points="589.277 686.89 597.384 687.916 597.384 668.65 589.277 667.105 589.277 686.89" fill="#3f3d56"/><polygon points="560.902 682.837 571.036 684.132 571.036 663.583 560.902 661.65 560.902 682.837" fill="#3f3d56"/><polygon points="526.448 678.783 538.608 680.326 538.608 657.503 526.448 655.187 526.448 678.783" fill="#3f3d56"/><polygon points="484.899 673.717 500.1 675.638 500.1 650.409 484.899 647.524 484.899 673.717" fill="#3f3d56"/><polygon points="449.431 557.179 431.191 550.3 431.191 521.711 449.431 529.709 449.431 557.179" fill="#3f3d56"/><rect x="619.22047" y="703.34943" width="1.48683" height="23.78929" fill="#2f2e41"/><rect x="637.17106" y="709.82471" width="1.05356" height="16.8569" fill="#2f2e41"/><rect x="652.86574" y="711.88336" width="0.92596" height="14.81543" fill="#2f2e41"/><polygon points="577.116 695.808 577.116 726.412 557.356 726.382 537.595 726.351 537.595 691.957 557.356 693.883 577.116 695.808" fill="#3f3d56"/><polygon points="244.73 726.412 284.251 726.349 284.251 691.957 244.73 695.804 244.73 726.412" fill="#3f3d56"/><rect y="725.39869" width="885.5" height="2.02675" fill="#2f2e41"/><polygon points="577.116 695.808 577.116 726.412 557.356 726.382 557.356 693.883 577.116 695.808" opacity="0.1"/><rect x="406.36292" y="698.54429" width="2.02675" height="28.37447" fill="#2f2e41"/><path d="M558.4842,774.49149c0,9.94289-5.31121,18.24029-11.69584,18.52532-6.20727.27711-11.11411-7.16322-11.11411-16.61156s12.12748-35.38718,12.12748-35.38718S558.4842,764.54861,558.4842,774.49149Z" transform="translate(-139.41207 -86.04886)" fill="#ffe045"/><rect x="168.74636" y="707.63783" width="1.2089" height="16.92457" fill="#2f2e41"/><path d="M315.73912,787.66134c0,5.93065-3.168,10.87982-6.97624,11.04983-3.70246.16529-6.62926-4.27266-6.62926-9.90832s7.2337-21.10746,7.2337-21.10746S315.73912,781.73069,315.73912,787.66134Z" transform="translate(-139.41207 -86.04886)" fill="#ffe045"/><path d="M767.55352,790.3367c0,5.64038-3.55458,10.04606-8.17757,9.82918-4.909-.2303-9.117-5.52544-9.117-11.81381s9.117-21.99966,9.117-21.99966S767.55352,784.69631,767.55352,790.3367Z" transform="translate(-139.41207 -86.04886)" fill="#ffe045"/><path d="M782.90447,796.53852c0,3.99673-2.51875,7.11856-5.79456,6.96488-3.47844-.16319-6.46025-3.91528-6.46025-8.37117s6.46025-15.58878,6.46025-15.58878S782.90447,792.54179,782.90447,796.53852Z" transform="translate(-139.41207 -86.04886)" fill="#ffe045"/><path d="M797.83359,798.51664c0,3.5127-2.21371,6.25645-5.09281,6.12139-3.05718-.14343-5.67787-3.44112-5.67787-7.35737s5.67787-13.70089,5.67787-13.70089S797.83359,795.00393,797.83359,798.51664Z" transform="translate(-139.41207 -86.04886)" fill="#ffe045"/><path d="M805.03008,249.29959s-9.86369,29.59108-4.38386,36.16687-32.879-19.72738-32.879-19.72738l20.82335-24.11125Z" transform="translate(-139.41207 -86.04886)" fill="#a0616a"/><circle cx="643.12413" cy="113.99581" r="49.20683" fill="#2f2e41"/><polygon points="834.397 496.424 809.19 516.152 794.942 493.136 820.149 475.601 834.397 496.424" fill="#a0616a"/><path d="M938.18993,730.97658l6.57579,31.783,18.63142,25.20722s50.41443,15.34352,16.43949,23.01528-41.6467-5.47983-41.6467-5.47983L914.07868,784.6789V813.174H898.73516l-3.2879-40.55073s-2.19193-12.05563,7.67176-25.20722l2.19193-19.72738Z" transform="translate(-139.41207 -86.04886)" fill="#2f2e41"/><path d="M811.05789,337.52484l8.76773,50.41443s93.15709-9.86369,99.73289,8.76772,8.76773,24.11125,8.76773,24.11125l-18.63142,6.5758-8.76773-16.43949a20.81584,20.81584,0,0,0-16.43949,1.096c-8.76772,4.38386-85.48533,15.34352-90.96516,1.096s-20.82335-66.85391-20.82335-66.85391l23.01528-18.63142Z" transform="translate(-139.41207 -86.04886)" fill="#a0616a"/><path d="M811.05789,337.52484l8.76773,50.41443s93.15709-9.86369,99.73289,8.76772,8.76773,24.11125,8.76773,24.11125l-18.63142,6.5758-8.76773-16.43949a20.81584,20.81584,0,0,0-16.43949,1.096c-8.76772,4.38386-85.48533,15.34352-90.96516,1.096s-20.82335-66.85391-20.82335-66.85391l23.01528-18.63142Z" transform="translate(-139.41207 -86.04886)" opacity="0.1"/><path d="M862.56829,483.2883l7.67176,26.30318,19.72738,100.82885s2.19193,74.52568,5.47983,83.29341,3.2879,9.86369,0,13.15159-9.86369,14.24755,0,20.82335,44.9346,14.24755,46.03057,6.57579,1.096-19.72738,0-25.20721,3.28789-90.96517,3.28789-90.96517L931.61413,487.67216l-44.9346-20.82335Z" transform="translate(-139.41207 -86.04886)" fill="#2f2e41"/><path d="M862.56829,483.2883l7.67176,26.30318,19.72738,100.82885s2.19193,74.52568,5.47983,83.29341,3.2879,9.86369,0,13.15159-9.86369,14.24755,0,20.82335,44.9346,14.24755,46.03057,6.57579,1.096-19.72738,0-25.20721,3.28789-90.96517,3.28789-90.96517L931.61413,487.67216l-44.9346-20.82335Z" transform="translate(-139.41207 -86.04886)" opacity="0.1"/><path d="M909.69482,380.26751l24.11125,46.03056s138.09169,61.37409,126.03607,86.5813-78.90954,72.33375-78.90954,72.33375-3.2879,18.63142-13.15159,13.15159-33.97494-33.97494-31.783-37.26284,9.86369-10.95966,13.15159-9.86369,41.6467-28.49511,41.6467-28.49511l-65.758-16.43949s-78.90954-2.19193-83.29341-39.45477,0-43.83863,0-43.83863l-5.47982-12.05563L881.1997,383.5554Z" transform="translate(-139.41207 -86.04886)" fill="#2f2e41"/><path d="M943.66976,562.19784l-23.01528,20.82335s-19.72739-8.76773-31.783-5.47983-32.879,5.47983-32.879,5.47983l3.2879,18.63142,27.96228-5.15881-22.48245,31.462s0,49.31846,14.24755,49.31846,9.8637-29.59108,9.8637-29.59108l43.83863-33.97494s21.91932-8.76773,24.11125-8.76773S943.66976,562.19784,943.66976,562.19784Z" transform="translate(-139.41207 -86.04886)" fill="#2f2e41"/><circle cx="661.23415" cy="134.75562" r="37.26284" fill="#a0616a"/><path d="M763.93136,249.84757s17.53545-4.38386,23.01528,0,6.5758,14.24756,14.24756,15.34352,14.24755,1.096,15.34352,2.19194,26.30318,31.783,26.30318,31.783,15.34352,8.76772,18.63142,20.82335,36.16687,52.60636,40.55074,56.99022-28.49512,26.30318-39.45477,33.97494-42.74267,10.95966-52.60636-6.57579S746.39591,272.86286,763.93136,249.84757Z" transform="translate(-139.41207 -86.04886)" fill="#575a89"/><path d="M805.57806,321.08535l8.76773,50.41443s93.1571-9.86369,99.73289,8.76773,8.76773,24.11125,8.76773,24.11125L904.215,410.95455l-8.76773-16.43949a20.81589,20.81589,0,0,0-16.43949,1.096c-8.76772,4.38386-85.48533,15.34352-90.96516,1.096s-20.82335-66.85391-20.82335-66.85391l23.01528-18.63142Z" transform="translate(-139.41207 -86.04886)" fill="#a0616a"/><path d="M784.63435,254.45864s26.42354,55.66705,24.23161,71.01058-9.86369,4.38386-9.86369,4.38386-9.8637-15.34352-14.24756-6.5758-9.86369,20.82335-14.24755,19.72739-28.49512-82.19744-15.34353-89.8692S784.63435,254.45864,784.63435,254.45864Z" transform="translate(-139.41207 -86.04886)" fill="#575a89"/><circle cx="589.81674" cy="49.20683" r="49.20683" fill="#2f2e41"/><path d="M686.78529,176.0021a49.2095,49.2095,0,0,0,75.98837-25.83768,49.20954,49.20954,0,1,1-95.98926-20.17936A49.19136,49.19136,0,0,0,686.78529,176.0021Z" transform="translate(-139.41207 -86.04886)" fill="#2f2e41"/><circle cx="633.00232" cy="122.19694" r="36.08501" fill="#2f2e41"/><ellipse cx="660.34652" cy="108.66504" rx="31.98443" ry="25.01347" fill="#2f2e41"/><ellipse cx="661.78213" cy="138.5915" rx="7.12378" ry="12.60361" fill="#a0616a"/><path d="M898.9811,410.47561s19.4016-11.13122,23.00341-8.34005,5.20206,11.52529,5.20206,11.52529l-22.4236,8.80134-6.57579-12.05562Z" transform="translate(-139.41207 -86.04886)" fill="#2f2e41"/></svg>